<?xml version="1.0" encoding="UTF-8"?>
<svg width="18px" height="24px" viewBox="0 0 18 24" version="1.1" xmlns="http://www.w3.org/2000/svg" xmlns:xlink="http://www.w3.org/1999/xlink">
    <!-- Generator: Sketch 43.2 (39069) - http://www.bohemiancoding.com/sketch -->
    <title>Artboard</title>
    <desc>Created with Sketch.</desc>
    <defs></defs>
    <g id="Page-1" stroke="none" stroke-width="1" fill="none" fill-rule="evenodd">
        <g id="Artboard" fill-rule="nonzero" fill="#000000">
            <g id="noun_898857_cc">
                <path d="M7.02413115,8.98401316 C7.35609836,8.98401316 7.6924918,8.89697368 7.99760656,8.71401316 C8.89937705,8.17371711 9.1947541,6.99809211 8.65593443,6.09365132 C8.11740984,5.18891447 6.94563934,4.89256579 6.04416393,5.43315789 C5.60744262,5.69486842 5.29819672,6.11171053 5.17396721,6.60641447 C5.0497377,7.10111842 5.12468852,7.61536184 5.38583607,8.05351974 C5.74170492,8.65184211 6.37495082,8.98401316 7.02413115,8.98401316 Z M6.34662295,5.94148026 C6.55731148,5.81536184 6.7892459,5.75526316 7.01852459,5.75526316 C7.46645902,5.75526316 7.90347541,5.98440789 8.14927869,6.39740132 C8.52078689,7.02177632 8.31688525,7.83296053 7.69485246,8.20598684 C7.07281967,8.57901316 6.264,8.37444079 5.89219672,7.75006579 C5.52068852,7.12569079 5.72429508,6.31450658 6.34662295,5.94148026 Z" id="Shape"></path>
                <path d="M8.62140984,11.6869737 C8.8117377,12.0064145 9.11419672,12.2323026 9.47360656,12.3231908 C9.58691803,12.3519079 9.70140984,12.3661184 9.81531148,12.3661184 C10.0628852,12.3661184 10.306623,12.2992105 10.5243934,12.1686513 C10.8427869,11.9776974 11.0682295,11.6742434 11.1585246,11.3133553 C11.2494098,10.9527632 11.1945246,10.5782566 11.0044918,10.2588158 C10.6117377,9.59950658 9.75747541,9.38398026 9.10121311,9.77743421 C8.44406557,10.1708882 8.22895082,11.0276645 8.62140984,11.6869737 Z M9.40367213,10.2857566 C9.5317377,10.2090789 9.67219672,10.1726645 9.81147541,10.1726645 C10.0832459,10.1726645 10.3485246,10.3118092 10.4978361,10.5625658 C10.6070164,10.7461184 10.6385902,10.9613487 10.5863607,11.1685855 C10.5344262,11.3758224 10.4048852,11.5504934 10.2219344,11.6600329 C10.0389836,11.7695724 9.82445902,11.80125 9.61790164,11.7491447 C9.41134426,11.6967434 9.2372459,11.5670724 9.12806557,11.3835197 C8.90232787,11.0042763 9.0262623,10.5119408 9.40367213,10.2857566 Z" id="Shape"></path>
                <path d="M5.53278689,15.3165789 C5.53721311,15.3148026 5.54193443,15.3156908 5.54606557,15.3136184 L6.4684918,14.8701316 C6.51186885,14.8494079 6.54521311,14.8174342 6.57265574,14.7813158 C6.72963934,14.6501645 6.8007541,14.4411513 6.75708197,14.2410197 C6.75737705,14.1954276 6.75059016,14.1492434 6.7287541,14.1057237 L6.43957377,13.5325658 C6.43691803,13.5183553 6.43809836,13.5038487 6.43337705,13.4896382 C6.43514754,13.4884539 6.43603279,13.4863816 6.43780328,13.4851974 L6.55081967,13.4171053 C6.55406557,13.4150329 6.55583607,13.4114803 6.55908197,13.4094079 C6.84737705,13.2501316 6.96540984,12.8910197 6.82140984,12.5911184 C6.82111475,12.5902303 6.82111475,12.5896382 6.82081967,12.58875 C6.82052459,12.5884539 6.82022951,12.5878618 6.82022951,12.5875658 C6.82022951,12.5872697 6.81993443,12.5869737 6.81993443,12.5866776 C6.81963934,12.5863816 6.81934426,12.5860855 6.81904918,12.5857895 C6.80518033,12.5573684 6.78954098,12.5304276 6.7712459,12.504375 C6.76032787,12.4886842 6.74468852,12.4792105 6.73140984,12.4664803 C6.48944262,12.1011513 6.1347541,11.8323355 5.70895082,11.7139145 C5.24036066,11.5836513 4.7487541,11.6440461 4.32560656,11.8844408 C3.55632787,12.3214145 3.222,13.2453947 3.50881967,14.0728618 C3.50881967,14.1169737 3.51560656,14.1613816 3.5362623,14.2034211 C3.64455738,14.4245724 3.86704918,14.5536513 4.09780328,14.5536513 C4.18544262,14.5536513 4.27396721,14.5338158 4.35836066,14.4947368 C4.36455738,14.4923684 4.37104918,14.4932566 4.37695082,14.4905921 L4.4377377,14.4615789 C4.4542623,14.4589145 4.47108197,14.4598026 4.48760656,14.4541776 C4.49734426,14.4689803 4.5097377,14.4814145 4.52183607,14.4938487 L4.79508197,15.0643421 C4.81721311,15.1102303 4.85085246,15.1460526 4.8895082,15.1741776 C4.99485246,15.2970395 5.14711475,15.3680921 5.30557377,15.3680921 C5.382,15.3677961 5.45931148,15.3500329 5.53278689,15.3165789 Z M4.6162623,12.3995724 C5.20495082,12.0653289 5.95504918,12.2728618 6.29085246,12.8617105 C6.29114754,12.8744408 6.28672131,12.886875 6.27462295,12.8927961 C6.26842623,12.8957566 6.26488525,12.9013816 6.25898361,12.9049342 C6.25485246,12.9070066 6.25042623,12.9070066 6.24659016,12.909375 L6.11586885,12.9884211 C6.1102623,12.9916776 6.10731148,12.9973026 6.10229508,13.0008553 C5.8975082,13.1234211 5.79718033,13.3620395 5.84704918,13.59 C5.8467541,13.6358882 5.85354098,13.6820724 5.87537705,13.7255921 L6.16455738,14.2990461 C6.16721311,14.3132566 6.16603279,14.3277632 6.1707541,14.3416776 C6.15806557,14.3499671 6.15009836,14.3624013 6.13918033,14.3721711 L5.32180328,14.7650329 C5.31354098,14.7525987 5.30144262,14.7443092 5.29170492,14.7336513 L5.01432787,14.1548684 C4.99337705,14.1116447 4.96180328,14.0784868 4.92639344,14.0509539 C4.79655738,13.8946382 4.59,13.8232895 4.39140984,13.8653289 C4.34685246,13.8644408 4.302,13.8703618 4.25891803,13.8907895 L4.1252459,13.9544408 C4.12081967,13.9565132 4.11580328,13.9559211 4.11137705,13.9579934 C4.10370492,13.9615461 4.0957377,13.96125 4.08836066,13.9594737 C4.08747541,13.9571053 4.08777049,13.9544408 4.08688525,13.9520724 C3.84609836,13.3753618 4.07360656,12.7077632 4.6162623,12.3995724 Z" id="Shape"></path>
                <path d="M17.6243607,9.07875 C17.6205246,9.073125 17.6152131,9.06898026 17.611082,9.06365132 C14.9928197,4.72411184 10.7061639,1.53148026 5.79245902,0.249572368 C5.78036066,0.244835526 5.76914754,0.238322368 5.75645902,0.234473684 C5.71013115,0.220559211 5.66321311,0.209901316 5.61629508,0.201907895 C5.57291803,0.190953947 5.53042623,0.177335526 5.4867541,0.166973684 C5.36665574,0.137664474 5.2462623,0.160756579 5.14918033,0.221447368 C4.58881967,0.357039474 4.07567213,0.887565789 3.84993443,1.63746711 C3.61652459,2.41371711 3.76967213,3.16569079 4.19340984,3.58194079 L0.226918033,19.6880921 C0.226918033,19.6886842 0.226622951,19.6892763 0.226622951,19.6898684 L0.226327869,19.6913487 C0.225147541,19.6957895 0.225442623,19.6999342 0.224557377,19.704375 C0.219540984,19.7283553 0.215409836,19.7523355 0.214229508,19.7769079 C0.213639344,19.7896382 0.215409836,19.8020724 0.215704918,19.8145066 C0.216295082,19.8307895 0.216295082,19.8470724 0.218655738,19.8633553 C0.220721311,19.8775658 0.225147541,19.8908882 0.228688525,19.9048026 C0.232229508,19.9190132 0.234885246,19.9335197 0.239901639,19.9477303 C0.246098361,19.9649013 0.254655738,19.9805921 0.262622951,19.9965789 C0.267344262,20.0060526 0.270590164,20.0161184 0.276196721,20.0255921 C0.276491803,20.0258882 0.276786885,20.0261842 0.277081967,20.0267763 C0.295081967,20.0566776 0.317213115,20.0833224 0.341704918,20.1081908 C0.349081967,20.1158882 0.35704918,20.1224013 0.364721311,20.1292105 C0.383606557,20.1457895 0.403672131,20.1605921 0.425213115,20.1742105 C0.434065574,20.1795395 0.442032787,20.1851645 0.451180328,20.1899013 C0.477147541,20.2035197 0.504885246,20.2147697 0.534098361,20.2230592 C0.53852459,20.2242434 0.542655738,20.2266118 0.547081967,20.2277961 C0.547967213,20.2280921 0.548852459,20.2286842 0.549737705,20.2286842 C0.585442623,20.2375658 0.621147541,20.2417105 0.656262295,20.2417105 L0.656262295,20.2417105 L0.656262295,20.2417105 C0.70052459,20.2417105 0.744491803,20.233125 0.787868852,20.2195066 C0.801737705,20.2150658 0.814131148,20.2082566 0.827704918,20.2026316 C0.846295082,20.1946382 0.865180328,20.1896053 0.882885246,20.1789474 L1.77285246,19.6457566 L1.76577049,22.0579934 C1.76577049,22.0970724 1.7722623,22.134375 1.78140984,22.1704934 C1.80265574,22.5361184 1.92511475,22.8807237 2.14229508,23.1489474 C2.39931148,23.4660197 2.7637377,23.6486842 3.14262295,23.6495724 L3.14616393,23.6495724 C3.90245902,23.6495724 4.51947541,22.9402303 4.52213115,22.0662829 C4.52213115,22.0328289 4.518,22.0002632 4.51091803,21.9688816 L4.51445902,20.7319737 C4.63780328,20.7698684 4.7667541,20.795625 4.90337705,20.7962171 L4.90780328,20.7962171 C5.238,20.7962171 5.55078689,20.6786842 5.78891803,20.4646382 C6.04121311,20.2381579 6.18078689,19.9326316 6.18167213,19.6043092 C6.18167213,19.580625 6.17842623,19.558125 6.17488525,19.535625 L6.1822623,17.0034868 L15.0934426,11.6629934 C15.2613443,11.7310855 15.4490164,11.7686842 15.6508525,11.7686842 C15.6623607,11.7686842 15.6738689,11.7686842 15.685377,11.7683882 C16.1011475,11.7600987 16.5408197,11.604375 16.923541,11.3302303 C17.7786885,10.7182895 18.086459,9.72917763 17.6243607,9.07875 Z M4.90721311,19.9080592 L4.9057377,19.9080592 C4.69504918,19.9074671 4.518,19.7668421 4.51740984,19.6007566 L4.52154098,18.2276645 C4.52213115,17.9822368 4.32472131,17.7829934 4.08009836,17.7821053 L4.07891803,17.7821053 C3.83518033,17.7821053 3.63688525,17.9801645 3.63629508,18.2247039 L3.63216393,19.5921711 C3.63216393,19.5936513 3.63186885,19.5948355 3.63186885,19.5960197 C3.63186885,19.5972039 3.63216393,19.5983882 3.63216393,19.5998684 L3.62478689,22.0630263 C3.62478689,22.0855263 3.62803279,22.1071382 3.63127869,22.12875 C3.60590164,22.4775 3.39491803,22.7611184 3.14557377,22.7611184 L3.14468852,22.7611184 C2.9912459,22.7608224 2.88088525,22.6527632 2.82895082,22.5882237 C2.71947541,22.4532237 2.65691803,22.2607895 2.6575082,22.0606579 C2.6575082,22.0369737 2.6542623,22.0144737 2.65072131,21.9919737 L2.65986885,18.9825987 C2.65986885,18.9532895 2.65691803,18.9248684 2.65160656,18.8973355 C2.65780328,18.8097039 2.63891803,18.7194079 2.59081967,18.6379934 C2.46540984,18.4277961 2.19363934,18.3594079 1.98383607,18.4843421 L1.3402623,18.8698026 L5.0122623,3.96207237 C8.93095082,4.99351974 12.3391475,7.53957237 14.443082,11.0181908 L5.50859016,16.3723026 C5.35101639,16.4667434 5.27311475,16.6437829 5.29731148,16.8154934 L5.28904918,19.6013487 C5.28904918,19.6114145 5.29140984,19.6208882 5.292,19.6306579 C5.28196721,19.7088158 5.23770492,19.7671382 5.19816393,19.8026645 C5.12262295,19.8707566 5.01934426,19.9080592 4.90721311,19.9080592 Z M16.4092131,10.6075658 C16.1734426,10.7763158 15.9028525,10.8757895 15.667377,10.8805263 C15.591541,10.8825987 15.4307213,10.8698684 15.3318689,10.7798684 C15.3265574,10.7692105 15.3233115,10.7579605 15.3171148,10.7475987 C13.0576721,6.89388158 9.2912459,4.09233553 4.96534426,3.03305921 C4.95029508,3.02654605 4.93583607,3.01884868 4.91960656,3.01381579 C4.67763934,2.94039474 4.53127869,2.44598684 4.69740984,1.89384868 C4.85734426,1.36273026 5.22708197,1.03973684 5.47081967,1.08177632 C10.2417049,2.29796053 14.4041311,5.39851974 16.9149836,9.62111842 C17.0327213,9.83901316 16.8524262,10.2901974 16.4092131,10.6075658 Z" id="Shape"></path>
            </g>
        </g>
    </g>
</svg>